<?xml version="1.0" encoding="UTF-8" standalone="no"?>
<!-- Created with Inkscape (http://www.inkscape.org/) -->

<svg
   xmlns:dc="http://purl.org/dc/elements/1.1/"
   xmlns:cc="http://creativecommons.org/ns#"
   xmlns:rdf="http://www.w3.org/1999/02/22-rdf-syntax-ns#"
   xmlns:svg="http://www.w3.org/2000/svg"
   xmlns="http://www.w3.org/2000/svg"
   version="1.1"
   width="100"
   height="100"
   id="svg2">
  <defs
     id="defs4" />
  <metadata
     id="metadata7">
    <rdf:RDF>
      <cc:Work
         rdf:about="">
        <dc:format>image/svg+xml</dc:format>
        <dc:type
           rdf:resource="http://purl.org/dc/dcmitype/StillImage" />
        <dc:title></dc:title>
      </cc:Work>
    </rdf:RDF>
  </metadata>
  
  
  <g
     id="layer4"
     style="display:inline">
    <g
       id="g4490">
      <rect
         width="100"
         height="100"
         x="2.6171874e-06"
         y="1.9999999e-05"
         id="rect3965"
         style="opacity:0;color:#000000;fill:#bcbcbc;fill-opacity:1;stroke:none;stroke-width:1;marker:none;visibility:visible;display:inline;overflow:visible;enable-background:accumulate" />
      <path
         d="M 97.93752,19.99999 C 54.58232,21.09107 20,56.37253 20,100.00003 l 60.00002,0 c 0,-10.7337 8.3722,-19.4663 18.9687,-20 0.3419,-0.017 0.685,0 1.0313,0 l 0,-60.00004 c -0.6925,0 -1.3743,-0.0173 -2.0625,0 z"
         id="rect3853"
         style="color:#000000;fill:#000000;fill-opacity:1;stroke:none;stroke-width:1;marker:none;visibility:visible;display:inline;overflow:visible;enable-background:accumulate" />
      <path
         d="m 521.06921,1010.3767 a 20.924559,20.924559 0 0 1 20.92456,20.9246"
         transform="matrix(0,-2.4194059,2.4194059,0,-2395.6364,1360.1779)"
         id="path3991"
         style="color:#000000;fill:none;stroke:#ffffff;stroke-width:0.41332459;stroke-linecap:square;stroke-miterlimit:4;stroke-opacity:1;stroke-dasharray:none;marker:none;visibility:visible;display:inline;overflow:visible;enable-background:accumulate" />
      <path
         d="m 521.06921,1010.3767 a 20.924559,20.924559 0 0 1 20.92456,20.9246"
         transform="matrix(0,-2.3129284,2.3129284,0,-2285.826,1304.6958)"
         id="path3993"
         style="color:#000000;fill:none;stroke:#ffffff;stroke-width:0.43235233;stroke-linecap:square;stroke-miterlimit:4;stroke-opacity:1;stroke-dasharray:none;marker:none;visibility:visible;display:inline;overflow:visible;enable-background:accumulate" />
    </g>
  </g>
  
</svg>
