<?xml version="1.0" encoding="UTF-8" standalone="no"?>
<!-- Created with Inkscape (http://www.inkscape.org/) -->

<svg
   xmlns:dc="http://purl.org/dc/elements/1.1/"
   xmlns:cc="http://creativecommons.org/ns#"
   xmlns:rdf="http://www.w3.org/1999/02/22-rdf-syntax-ns#"
   xmlns:svg="http://www.w3.org/2000/svg"
   xmlns="http://www.w3.org/2000/svg"
   version="1.1"
   width="100"
   height="100"
   id="svg2">
  <defs
     id="defs4" />
  <metadata
     id="metadata7">
    <rdf:RDF>
      <cc:Work
         rdf:about="">
        <dc:format>image/svg+xml</dc:format>
        <dc:type
           rdf:resource="http://purl.org/dc/dcmitype/StillImage" />
        <dc:title></dc:title>
      </cc:Work>
    </rdf:RDF>
  </metadata>
  
  
  
  <g
     id="layer5"
     style="display:inline">
    <g
       id="g4474">
      <rect
         width="100"
         height="100"
         x="-100.00002"
         y="2.6171874e-06"
         transform="matrix(0,-1,1,0,0,0)"
         id="rect3961"
         style="opacity:0;color:#000000;fill:#bcbcbc;fill-opacity:1;stroke:none;stroke-width:1;marker:none;visibility:visible;display:inline;overflow:visible;enable-background:accumulate" />
      <path
         d="m 20,100.00001 60.00002,0 c 0,-11.08 8.92,-20 20,-20 l 0,-60 c -10.7337,0 -19.4663,-8.37218 -20,-18.96875 -0.017,-0.34183 0,-0.685 0,-1.03125 L 20,1e-5 l 0,100 z"
         id="rect3829"
         style="color:#000000;fill:#000000;fill-opacity:1;stroke:none;stroke-width:1;marker:none;visibility:visible;display:inline;overflow:visible;enable-background:accumulate" />
      <g
         transform="matrix(0,-1,1,0,-952.37499,300.00002)"
         id="g4021">
        <path
           d="m 200.5,1001.2679 11.10658,0"
           id="path4023"
           style="fill:none;stroke:#ffffff;stroke-width:1px;stroke-linecap:square;stroke-linejoin:miter;stroke-opacity:1" />
        <path
           d="m 200.5,1003.4821 11.10658,0"
           id="path4025"
           style="fill:none;stroke:#ffffff;stroke-width:1px;stroke-linecap:square;stroke-linejoin:miter;stroke-opacity:1" />
        <path
           d="m 288.39342,1001.2679 11.10658,0"
           id="path4027"
           style="fill:none;stroke:#ffffff;stroke-width:1px;stroke-linecap:square;stroke-linejoin:miter;stroke-opacity:1" />
        <path
           d="m 288.39342,1003.4821 11.10658,0"
           id="path4029"
           style="fill:none;stroke:#ffffff;stroke-width:1px;stroke-linecap:square;stroke-linejoin:miter;stroke-opacity:1" />
      </g>
      <g
         transform="matrix(0,-1,1,0,-952.36218,400.00002)"
         id="g4045">
        <path
           d="m 351.1071,1040.7556 0,11.1066"
           id="path4037"
           style="fill:none;stroke:#ffffff;stroke-width:1px;stroke-linecap:square;stroke-linejoin:miter;stroke-opacity:1" />
        <path
           d="m 348.8929,1040.7556 0,11.1066"
           id="path4039"
           style="fill:none;stroke:#ffffff;stroke-width:1px;stroke-linecap:square;stroke-linejoin:miter;stroke-opacity:1" />
      </g>
    </g>
  </g>
  
</svg>
