<?xml version="1.0" encoding="UTF-8" standalone="no"?>
<!-- Created with Inkscape (http://www.inkscape.org/) -->

<svg
   xmlns:dc="http://purl.org/dc/elements/1.1/"
   xmlns:cc="http://creativecommons.org/ns#"
   xmlns:rdf="http://www.w3.org/1999/02/22-rdf-syntax-ns#"
   xmlns:svg="http://www.w3.org/2000/svg"
   xmlns="http://www.w3.org/2000/svg"
   version="1.1"
   width="100"
   height="100"
   id="svg2">
  <defs
     id="defs4" />
  <metadata
     id="metadata7">
    <rdf:RDF>
      <cc:Work
         rdf:about="">
        <dc:format>image/svg+xml</dc:format>
        <dc:type
           rdf:resource="http://purl.org/dc/dcmitype/StillImage" />
        <dc:title></dc:title>
      </cc:Work>
    </rdf:RDF>
  </metadata>
  
  <g
     id="layer2"
     style="display:inline">
    <g
       id="g4513">
      <rect
         width="100"
         height="100"
         x="0"
         y="2.6171874e-06"
         id="rect3967"
         style="opacity:0;color:#000000;fill:#bcbcbc;fill-opacity:1;stroke:none;stroke-width:1;marker:none;visibility:visible;display:inline;overflow:visible;enable-background:accumulate" />
      <path
         d="m 49.99999,20 c -16.62,0 -30,13.38 -30,30.00002 l 0,50 60,0 0,-50 C 79.99999,33.38 66.61999,20 49.99999,20 z"
         id="rect3867"
         style="color:#000000;fill:#000000;fill-opacity:1;stroke:none;stroke-width:1;marker:none;visibility:visible;display:inline;overflow:visible;enable-background:accumulate" />
      <g
         transform="translate(-600.26669,-952.36218)"
         id="g4200">
        <path
           d="m 651.37379,1040.7556 0,11.1066"
           id="path3941"
           style="fill:none;stroke:#ffffff;stroke-width:1px;stroke-linecap:square;stroke-linejoin:miter;stroke-opacity:1" />
        <path
           d="m 649.15959,1040.7556 0,11.1066"
           id="path3943"
           style="fill:none;stroke:#ffffff;stroke-width:1px;stroke-linecap:square;stroke-linejoin:miter;stroke-opacity:1" />
      </g>
    </g>
  </g>
  <g
     id="layer3"
     style="display:inline">
    <g
       id="g4501">
      <rect
         width="100"
         height="100"
         x="0"
         y="-100.00002"
         transform="matrix(0,1,-1,0,0,0)"
         id="rect3963"
         style="opacity:0;color:#000000;fill:#bcbcbc;fill-opacity:1;stroke:none;stroke-width:1;marker:none;visibility:visible;display:inline;overflow:visible;enable-background:accumulate" />
      <path
         d="M 80.00002,0 20,0 l 0,100 60.00002,0 0,-100 z"
         id="rect3841"
         style="color:#000000;fill:#000000;fill-opacity:1;stroke:none;stroke-width:1;marker:none;visibility:visible;display:inline;overflow:visible;enable-background:accumulate" />
      <g
         transform="matrix(0,1,-1,0,1052.375,-402.67113)"
         id="g3983">
        <path
           d="m 403.17113,1001.2679 99,0"
           id="path3885"
           style="fill:none;stroke:#ffffff;stroke-width:0.99999994px;stroke-linecap:square;stroke-linejoin:miter;stroke-opacity:1" />
        <path
           d="m 403.17113,1003.4821 99,0"
           id="path3887"
           style="fill:none;stroke:#ffffff;stroke-width:0.99999994px;stroke-linecap:square;stroke-linejoin:miter;stroke-opacity:1" />
      </g>
    </g>
  </g>
  <g
     id="layer4"
     style="display:inline">
    <g
       id="g4490">
      <rect
         width="100"
         height="100"
         x="2.6171874e-06"
         y="1.9999999e-05"
         id="rect3965"
         style="opacity:0;color:#000000;fill:#bcbcbc;fill-opacity:1;stroke:none;stroke-width:1;marker:none;visibility:visible;display:inline;overflow:visible;enable-background:accumulate" />
      <path
         d="M 97.93752,19.99999 C 54.58232,21.09107 20,56.37253 20,100.00003 l 60.00002,0 c 0,-10.7337 8.3722,-19.4663 18.9687,-20 0.3419,-0.017 0.685,0 1.0313,0 l 0,-60.00004 c -0.6925,0 -1.3743,-0.0173 -2.0625,0 z"
         id="rect3853"
         style="color:#000000;fill:#000000;fill-opacity:1;stroke:none;stroke-width:1;marker:none;visibility:visible;display:inline;overflow:visible;enable-background:accumulate" />
      <path
         d="m 521.06921,1010.3767 a 20.924559,20.924559 0 0 1 20.92456,20.9246"
         transform="matrix(0,-2.4194059,2.4194059,0,-2395.6364,1360.1779)"
         id="path3991"
         style="color:#000000;fill:none;stroke:#ffffff;stroke-width:0.41332459;stroke-linecap:square;stroke-miterlimit:4;stroke-opacity:1;stroke-dasharray:none;marker:none;visibility:visible;display:inline;overflow:visible;enable-background:accumulate" />
      <path
         d="m 521.06921,1010.3767 a 20.924559,20.924559 0 0 1 20.92456,20.9246"
         transform="matrix(0,-2.3129284,2.3129284,0,-2285.826,1304.6958)"
         id="path3993"
         style="color:#000000;fill:none;stroke:#ffffff;stroke-width:0.43235233;stroke-linecap:square;stroke-miterlimit:4;stroke-opacity:1;stroke-dasharray:none;marker:none;visibility:visible;display:inline;overflow:visible;enable-background:accumulate" />
    </g>
  </g>
  <g
     id="layer5"
     style="display:inline">
    <g
       id="g4474">
      <rect
         width="100"
         height="100"
         x="-100.00002"
         y="2.6171874e-06"
         transform="matrix(0,-1,1,0,0,0)"
         id="rect3961"
         style="opacity:0;color:#000000;fill:#bcbcbc;fill-opacity:1;stroke:none;stroke-width:1;marker:none;visibility:visible;display:inline;overflow:visible;enable-background:accumulate" />
      <path
         d="m 20,100.00001 60.00002,0 c 0,-11.08 8.92,-20 20,-20 l 0,-60 c -10.7337,0 -19.4663,-8.37218 -20,-18.96875 -0.017,-0.34183 0,-0.685 0,-1.03125 L 20,1e-5 l 0,100 z"
         id="rect3829"
         style="color:#000000;fill:#000000;fill-opacity:1;stroke:none;stroke-width:1;marker:none;visibility:visible;display:inline;overflow:visible;enable-background:accumulate" />
      <g
         transform="matrix(0,-1,1,0,-952.37499,300.00002)"
         id="g4021">
        <path
           d="m 200.5,1001.2679 11.10658,0"
           id="path4023"
           style="fill:none;stroke:#ffffff;stroke-width:1px;stroke-linecap:square;stroke-linejoin:miter;stroke-opacity:1" />
        <path
           d="m 200.5,1003.4821 11.10658,0"
           id="path4025"
           style="fill:none;stroke:#ffffff;stroke-width:1px;stroke-linecap:square;stroke-linejoin:miter;stroke-opacity:1" />
        <path
           d="m 288.39342,1001.2679 11.10658,0"
           id="path4027"
           style="fill:none;stroke:#ffffff;stroke-width:1px;stroke-linecap:square;stroke-linejoin:miter;stroke-opacity:1" />
        <path
           d="m 288.39342,1003.4821 11.10658,0"
           id="path4029"
           style="fill:none;stroke:#ffffff;stroke-width:1px;stroke-linecap:square;stroke-linejoin:miter;stroke-opacity:1" />
      </g>
      <g
         transform="matrix(0,-1,1,0,-952.36218,400.00002)"
         id="g4045">
        <path
           d="m 351.1071,1040.7556 0,11.1066"
           id="path4037"
           style="fill:none;stroke:#ffffff;stroke-width:1px;stroke-linecap:square;stroke-linejoin:miter;stroke-opacity:1" />
        <path
           d="m 348.8929,1040.7556 0,11.1066"
           id="path4039"
           style="fill:none;stroke:#ffffff;stroke-width:1px;stroke-linecap:square;stroke-linejoin:miter;stroke-opacity:1" />
      </g>
    </g>
  </g>
  <g
     id="layer6"
     style="display:inline">
    <g
       id="g4450">
      <rect
         width="100"
         height="99.999977"
         x="0"
         y="2.6171874e-06"
         id="rect3959"
         style="opacity:0;color:#000000;fill:#bcbcbc;fill-opacity:0;stroke:none;stroke-width:1;marker:none;visibility:visible;display:inline;overflow:visible;enable-background:accumulate" />
      <path
         d="M 20,0 C 20,11.08 11.08,20 0,20 l 0,60.00002 c 11.08,0 20,8.92 20,20 l 60,0 c 0,-10.7337 8.37218,-19.4663 18.96875,-20 0.34183,-0.017 0.685,0 1.03125,0 L 100,20 C 88.92,20 80,11.08 80,0 L 20,0 z"
         id="rect3817"
         style="color:#000000;fill:#000000;fill-opacity:1;stroke:none;stroke-width:1;marker:none;visibility:visible;display:inline;overflow:visible;enable-background:accumulate" />
      <g
         transform="translate(-200,-952.37499)"
         id="g3977">
        <path
           d="m 200.5,1001.2679 11.10658,0"
           id="path3925"
           style="fill:none;stroke:#ffffff;stroke-width:1px;stroke-linecap:square;stroke-linejoin:miter;stroke-opacity:1" />
        <path
           d="m 200.5,1003.4821 11.10658,0"
           id="path3927"
           style="fill:none;stroke:#ffffff;stroke-width:1px;stroke-linecap:square;stroke-linejoin:miter;stroke-opacity:1" />
        <path
           d="m 288.39342,1001.2679 11.10658,0"
           id="path3929"
           style="fill:none;stroke:#ffffff;stroke-width:1px;stroke-linecap:square;stroke-linejoin:miter;stroke-opacity:1" />
        <path
           d="m 288.39342,1003.4821 11.10658,0"
           id="path3931"
           style="fill:none;stroke:#ffffff;stroke-width:1px;stroke-linecap:square;stroke-linejoin:miter;stroke-opacity:1" />
      </g>
      <g
         transform="translate(-201.6071,-952.36218)"
         id="g3971">
        <path
           d="m 252.7142,952.86218 0,11.10658"
           id="path3933"
           style="fill:none;stroke:#ffffff;stroke-width:1px;stroke-linecap:square;stroke-linejoin:miter;stroke-opacity:1" />
        <path
           d="m 250.5,952.86218 0,11.10658"
           id="path3935"
           style="fill:none;stroke:#ffffff;stroke-width:1px;stroke-linecap:square;stroke-linejoin:miter;stroke-opacity:1" />
        <path
           d="m 252.7142,1040.7556 0,11.1066"
           id="path3937"
           style="fill:none;stroke:#ffffff;stroke-width:1px;stroke-linecap:square;stroke-linejoin:miter;stroke-opacity:1" />
        <path
           d="m 250.5,1040.7556 0,11.1066"
           id="path3939"
           style="fill:none;stroke:#ffffff;stroke-width:1px;stroke-linecap:square;stroke-linejoin:miter;stroke-opacity:1" />
      </g>
    </g>
  </g>
</svg>
