<?xml version="1.0" encoding="UTF-8" standalone="no"?>
<!-- Created with Inkscape (http://www.inkscape.org/) -->

<svg
   xmlns:dc="http://purl.org/dc/elements/1.1/"
   xmlns:cc="http://creativecommons.org/ns#"
   xmlns:rdf="http://www.w3.org/1999/02/22-rdf-syntax-ns#"
   xmlns:svg="http://www.w3.org/2000/svg"
   xmlns="http://www.w3.org/2000/svg"
   xmlns:xlink="http://www.w3.org/1999/xlink"
   xmlns:sodipodi="http://sodipodi.sourceforge.net/DTD/sodipodi-0.dtd"
   xmlns:inkscape="http://www.inkscape.org/namespaces/inkscape"
   width="100"
   height="100"
   id="svg2"
   version="1.1"
   inkscape:version="0.48.2 r9819"
   sodipodi:docname="pins.svg">
  <defs
     id="defs4">
    <linearGradient
       id="linearGradient4067">
      <stop
         style="stop-color:#ff0000;stop-opacity:1;"
         offset="0"
         id="stop4069" />
      <stop
         style="stop-color:#550000;stop-opacity:1;"
         offset="1"
         id="stop4071" />
    </linearGradient>
    <linearGradient
       id="linearGradient4059">
      <stop
         id="stop4061"
         offset="0"
         style="stop-color:#ff8080;stop-opacity:1;" />
      <stop
         id="stop4063"
         offset="1"
         style="stop-color:#2b0000;stop-opacity:1;" />
    </linearGradient>
    <linearGradient
       id="linearGradient4051">
      <stop
         id="stop4053"
         offset="0"
         style="stop-color:#800000;stop-opacity:1;" />
      <stop
         id="stop4055"
         offset="1"
         style="stop-color:#ff0000;stop-opacity:1;" />
    </linearGradient>
    <linearGradient
       id="linearGradient3802"
       inkscape:collect="always">
      <stop
         id="stop3804"
         offset="0"
         style="stop-color:#0078ff;stop-opacity:1" />
      <stop
         id="stop3806"
         offset="1"
         style="stop-color:#002855;stop-opacity:1" />
    </linearGradient>
    <linearGradient
       inkscape:collect="always"
       id="linearGradient3788">
      <stop
         style="stop-color:#80bcff;stop-opacity:1"
         offset="0"
         id="stop3790" />
      <stop
         style="stop-color:#00142b;stop-opacity:1"
         offset="1"
         id="stop3792" />
    </linearGradient>
    <linearGradient
       inkscape:collect="always"
       id="linearGradient3780">
      <stop
         style="stop-color:#003c80;stop-opacity:1"
         offset="0"
         id="stop3782" />
      <stop
         style="stop-color:#0078ff;stop-opacity:1"
         offset="1"
         id="stop3784" />
    </linearGradient>
    <linearGradient
       inkscape:collect="always"
       xlink:href="#linearGradient3780"
       id="linearGradient3786"
       x1="50.027805"
       y1="98.939339"
       x2="50.027805"
       y2="1.096501"
       gradientUnits="userSpaceOnUse"
       gradientTransform="matrix(0.97171573,0,0,0.97171573,1.4142136,953.77639)" />
    <linearGradient
       inkscape:collect="always"
       xlink:href="#linearGradient3788"
       id="linearGradient3794"
       x1="54.270447"
       y1="-0.76287574"
       x2="54.270447"
       y2="97.348351"
       gradientUnits="userSpaceOnUse"
       gradientTransform="matrix(0.97171573,0,0,0.97171573,1.4142136,953.77639)" />
    <linearGradient
       inkscape:collect="always"
       xlink:href="#linearGradient3802"
       id="linearGradient3800"
       gradientUnits="userSpaceOnUse"
       gradientTransform="matrix(0.97171573,0,0,0.97171573,1.4142136,953.77639)"
       x1="49.722389"
       y1="63.234436"
       x2="49.722389"
       y2="20.573303" />
    <linearGradient
       inkscape:collect="always"
       xlink:href="#linearGradient4051"
       id="linearGradient4057"
       gradientUnits="userSpaceOnUse"
       gradientTransform="matrix(0.97171573,0,0,0.97171573,1.4142136,953.77639)"
       x1="50.027805"
       y1="98.939339"
       x2="50.027805"
       y2="1.096501" />
    <linearGradient
       inkscape:collect="always"
       xlink:href="#linearGradient4059"
       id="linearGradient4065"
       gradientUnits="userSpaceOnUse"
       gradientTransform="matrix(0.97171573,0,0,0.97171573,1.4142136,953.77639)"
       x1="54.270447"
       y1="-0.76287574"
       x2="54.270447"
       y2="97.348351" />
    <linearGradient
       inkscape:collect="always"
       xlink:href="#linearGradient4067"
       id="linearGradient4073"
       gradientUnits="userSpaceOnUse"
       gradientTransform="matrix(0.97171573,0,0,0.97171573,1.4142136,953.77639)"
       x1="49.722389"
       y1="63.234436"
       x2="49.722389"
       y2="20.573303" />
  </defs>
  <sodipodi:namedview
     id="base"
     pagecolor="#ffffff"
     bordercolor="#666666"
     borderopacity="1.0"
     inkscape:pageopacity="0.0"
     inkscape:pageshadow="2"
     inkscape:zoom="5.6568542"
     inkscape:cx="68.791269"
     inkscape:cy="42.247485"
     inkscape:document-units="px"
     inkscape:current-layer="layer1"
     showgrid="false"
     inkscape:window-width="1920"
     inkscape:window-height="1146"
     inkscape:window-x="0"
     inkscape:window-y="25"
     inkscape:window-maximized="1" />
  <metadata
     id="metadata7">
    <rdf:RDF>
      <cc:Work
         rdf:about="">
        <dc:format>image/svg+xml</dc:format>
        <dc:type
           rdf:resource="http://purl.org/dc/dcmitype/StillImage" />
        <dc:title />
      </cc:Work>
    </rdf:RDF>
  </metadata>
  <g
     inkscape:groupmode="layer"
     id="layer2"
     inkscape:label="shadow"
     sodipodi:insensitive="true">
    <path
       transform="translate(0,-952.36218)"
       id="path3010"
       d="m 50,1035.3622 -0.21875,0.037 c -22.729275,0.02 -41.125,3.1598 -41.125,7.0285 0,1.9801 4.842786,3.7696 12.59375,5.047 l 28.75,4.8875 28.75,-4.8875 c 7.750964,-1.2774 12.59375,-3.0669 12.59375,-5.047 0,-3.8687 -18.395725,-7.0084 -41.125,-7.0285 L 50,1035.3622 z m 0,3.9472 c 10.138461,0 18.34375,1.3949 18.34375,3.1185 0,1.7236 -8.205289,3.1238 -18.34375,3.1238 -10.138461,0 -18.34375,-1.4002 -18.34375,-3.1238 0,-1.7236 8.205289,-3.1185 18.34375,-3.1185 z"
       style="opacity:0.5;color:#000000;fill:#000000;fill-opacity:1;stroke:none;stroke-width:1;marker:none;visibility:visible;display:inline;overflow:visible;enable-background:accumulate"
       inkscape:connector-curvature="0" />
  </g>
  <g
     inkscape:label="red"
     inkscape:groupmode="layer"
     id="layer1"
     transform="translate(0,-952.36218)"
     style="display:inline"
     sodipodi:insensitive="true">
    <path
       style="color:#000000;fill:url(#linearGradient4057);fill-opacity:1;stroke:none;stroke-width:2;marker:none;visibility:visible;display:inline;overflow:visible;enable-background:accumulate"
       d="m 49.787437,953.98896 c -22.086394,0.11509 -39.9618092,18.06092 -39.9618092,40.17437 0,11.31827 4.7058112,21.54657 12.2375452,28.84777 L 50,1050.948 77.936827,1023.0111 c 7.531734,-7.3012 12.237545,-17.5295 12.237545,-28.84777 0,-22.11345 -17.875415,-40.05928 -39.961809,-40.17437 -0.158558,0 -0.283417,0 -0.425126,0 z M 50,976.33842 c 9.851702,0 17.82491,7.97321 17.82491,17.82491 0,9.85167 -7.973208,17.85527 -17.82491,17.85527 -9.851702,0 -17.82491,-8.0036 -17.82491,-17.85527 0,-9.8517 7.973208,-17.82491 17.82491,-17.82491 z"
       id="path2996"
       inkscape:connector-curvature="0"
       sodipodi:nodetypes="cscccsccsssss" />
    <path
       id="path3796"
       d="m 50,976.33841 c 9.851702,0 17.824911,7.97321 17.824911,17.82492 0,9.85167 -7.973209,17.85527 -17.824911,17.85527 -9.851702,0 -17.82491,-8.0036 -17.82491,-17.85527 0,-9.85171 7.973208,-17.82492 17.82491,-17.82492 z"
       style="color:#000000;fill:none;stroke:url(#linearGradient4073);stroke-width:2;stroke-miterlimit:4;stroke-dasharray:none;marker:none;visibility:visible;display:inline;overflow:visible;enable-background:accumulate"
       inkscape:connector-curvature="0"
       sodipodi:nodetypes="sssss" />
    <path
       sodipodi:nodetypes="cscccscc"
       inkscape:connector-curvature="0"
       style="color:#000000;fill:none;stroke:url(#linearGradient4065);stroke-width:2;stroke-miterlimit:4;stroke-dasharray:none;marker:none;visibility:visible;display:inline;overflow:visible;enable-background:accumulate"
       d="m 49.787437,953.98895 c -22.086394,0.1151 -39.9618091,18.06092 -39.9618091,40.17438 0,11.31827 4.7058111,21.54657 12.2375451,28.84777 L 50,1050.948 77.936827,1023.0111 c 7.531734,-7.3012 12.237545,-17.5295 12.237545,-28.84777 0,-22.11346 -17.875415,-40.05928 -39.961809,-40.17438 -0.157761,0 -0.283417,0 -0.425126,0 z"
       id="path3798" />
  </g>
  <g
     inkscape:groupmode="layer"
     id="layer4"
     inkscape:label="blue"
     sodipodi:insensitive="true"
     style="display:inline">
    <path
       transform="translate(0,-952.36218)"
       sodipodi:nodetypes="cscccsccsssss"
       inkscape:connector-curvature="0"
       id="path3822"
       d="m 49.787437,953.98896 c -22.086394,0.11509 -39.9618092,18.06092 -39.9618092,40.17437 0,11.31827 4.7058112,21.54657 12.2375452,28.84777 L 50,1050.948 77.936827,1023.0111 c 7.531734,-7.3012 12.237545,-17.5295 12.237545,-28.84777 0,-22.11345 -17.875415,-40.05928 -39.961809,-40.17437 -0.158558,0 -0.283417,0 -0.425126,0 z M 50,976.33842 c 9.851702,0 17.82491,7.97321 17.82491,17.82491 0,9.85167 -7.973208,17.85527 -17.82491,17.85527 -9.851702,0 -17.82491,-8.0036 -17.82491,-17.85527 0,-9.8517 7.973208,-17.82491 17.82491,-17.82491 z"
       style="color:#000000;fill:url(#linearGradient3786);fill-opacity:1;stroke:none;stroke-width:2;marker:none;visibility:visible;display:inline;overflow:visible;enable-background:accumulate" />
    <path
       transform="translate(0,-952.36218)"
       sodipodi:nodetypes="sssss"
       inkscape:connector-curvature="0"
       style="color:#000000;fill:none;stroke:url(#linearGradient3800);stroke-width:2;stroke-miterlimit:4;stroke-dasharray:none;marker:none;visibility:visible;display:inline;overflow:visible;enable-background:accumulate"
       d="m 50,976.33841 c 9.851702,0 17.824911,7.97321 17.824911,17.82492 0,9.85167 -7.973209,17.85527 -17.824911,17.85527 -9.851702,0 -17.82491,-8.0036 -17.82491,-17.85527 0,-9.85171 7.973208,-17.82492 17.82491,-17.82492 z"
       id="path3824" />
    <path
       transform="translate(0,-952.36218)"
       id="path3826"
       d="m 49.787437,953.98895 c -22.086394,0.1151 -39.9618091,18.06092 -39.9618091,40.17438 0,11.31827 4.7058111,21.54657 12.2375451,28.84777 L 50,1050.948 77.936827,1023.0111 c 7.531734,-7.3012 12.237545,-17.5295 12.237545,-28.84777 0,-22.11346 -17.875415,-40.05928 -39.961809,-40.17438 -0.157761,0 -0.283417,0 -0.425126,0 z"
       style="color:#000000;fill:none;stroke:url(#linearGradient3794);stroke-width:2;stroke-miterlimit:4;stroke-dasharray:none;marker:none;visibility:visible;display:inline;overflow:visible;enable-background:accumulate"
       inkscape:connector-curvature="0"
       sodipodi:nodetypes="cscccscc" />
  </g>
</svg>
